<svg aria-hidden="true" style="position: absolute; width: 0; height: 0; overflow: hidden;" version="1.1" xmlns="http://www.w3.org/2000/svg" xmlns:xlink="http://www.w3.org/1999/xlink">
<defs>
<symbol id="icon-Vector5_2" viewBox="0 0 33 32">
<path d="M32.696 15.652l-10.261 13.739-22.435 2.609v-30.783l8-1.043 9.043 12.348 15.652 3.13z"></path>
</symbol>
<symbol id="icon-Vector5" viewBox="0 0 123 32">
<path d="M50.667 28l-50.667-28h122.667l-35.111 32-14.222-11.556-22.667 7.556z"></path>
</symbol>
<symbol id="icon-Vector4_2" viewBox="0 0 208 32">
<path d="M167.5 0l40 32h-207l9-21 26.5 8 84-8 47.5-11z"></path>
</symbol>
<symbol id="icon-Vector4_1" viewBox="0 0 9 20">
<path d="M4.191 12.218l5.266-5.836-8.908-6.303-0.55 19.921 6.986-5.914-2.794-1.868z"></path>
</symbol>
<symbol id="icon-Vector3" viewBox="0 0 40 32">
<path d="M0 6.919l2.018 22.919v2.162h27.676l9.946-2.162v-29.694l-21.045 12.396-18.595-5.622z"></path>
</symbol>
<symbol id="icon-Vector2_2" viewBox="0 0 61 32">
<path d="M23.579 0.421l-23.579 27.368v2.526l61.053 1.684-1.684-6.737-10.947-18.526-24.842-6.316z"></path>
</symbol>
<symbol id="icon-Vector2" viewBox="0 0 28 32">
<path d="M0 12.672l6.215-10.112v-2.56l21.554 1.024v27.648h-3.967l-5.422 3.328-6.479-14.72-11.901-4.608z"></path>
</symbol>
<symbol id="icon-Vector1" viewBox="0 0 38 32">
<path d="M0.246 8.123l4.431 23.631h31.015l2.215-31.754-15.262 16-22.4-7.877z"></path>
</symbol>
<symbol id="icon-Vector" viewBox="0 0 16 32">
<path d="M16.333 9.5l-16.333-9.5v32l6.222-4.5 10.111-18z"></path>
</symbol>
<symbol id="icon-Vector6_2" viewBox="0 0 10 32">
<path d="M7.538 23.692l-7.538 8.154v-31.846l10.462 14-2.923 9.692z"></path>
</symbol>
<symbol id="icon-Vector6" viewBox="0 0 17 32">
<path d="M0 10.512l1.19-8.86v-1.653h16v32l-5.289-21.488h-11.901z"></path>
</symbol>
<symbol id="icon-discord" viewBox="0 0 32 32">
<path fill="#131313" style="fill: var(--color1, #131313)" d="M26.963 0c1.875 0 3.387 1.516 3.476 3.3v28.7l-3.569-3.031-1.96-1.784-2.139-1.864 0.893 2.94h-18.717c-1.869 0-3.387-1.42-3.387-3.301v-21.653c0-1.784 1.52-3.303 3.393-3.303h22zM18.805 7.577h-0.040l-0.269 0.267c2.764 0.8 4.101 2.049 4.101 2.049-1.781-0.891-3.387-1.336-4.992-1.516-1.16-0.18-2.32-0.085-3.3 0h-0.267c-0.627 0-1.96 0.267-3.747 0.98-0.623 0.271-0.98 0.448-0.98 0.448s1.336-1.336 4.28-2.049l-0.18-0.18c0 0-2.229-0.085-4.636 1.693 0 0-2.407 4.192-2.407 9.36 0 0 1.333 2.32 4.991 2.408 0 0 0.533-0.711 1.073-1.336-2.053-0.624-2.853-1.872-2.853-1.872s0.179 0.088 0.447 0.267h0.080c0.040 0 0.059 0.020 0.080 0.040v0.008c0.021 0.021 0.040 0.040 0.080 0.040 0.44 0.181 0.88 0.36 1.24 0.533 0.621 0.269 1.42 0.537 2.4 0.715 1.24 0.18 2.661 0.267 4.28 0 0.8-0.18 1.6-0.356 2.4-0.713 0.52-0.267 1.16-0.533 1.863-0.983 0 0-0.8 1.248-2.94 1.872 0.44 0.621 1.060 1.333 1.060 1.333 3.659-0.080 5.080-2.4 5.16-2.301 0-5.16-2.42-9.36-2.42-9.36-2.18-1.619-4.22-1.68-4.58-1.68zM19.029 13.461c0.937 0 1.693 0.8 1.693 1.78 0 0.987-0.76 1.787-1.693 1.787s-1.693-0.8-1.693-1.779c0.003-0.987 0.764-1.784 1.693-1.788zM12.972 13.461c0.933 0 1.688 0.8 1.688 1.78 0 0.987-0.76 1.787-1.693 1.787s-1.693-0.8-1.693-1.779c0-0.987 0.76-1.784 1.699-1.788z"></path>
</symbol>
<symbol id="icon-tiktok" viewBox="0 0 32 32">
<path d="M16.707 0.027c1.747-0.027 3.48-0.013 5.213-0.027 0.107 2.040 0.84 4.12 2.333 5.56 1.493 1.48 3.6 2.16 5.653 2.387v5.373c-1.92-0.067-3.853-0.467-5.6-1.293-0.76-0.347-1.467-0.787-2.16-1.24-0.013 3.893 0.013 7.787-0.027 11.667-0.107 1.867-0.72 3.72-1.8 5.253-1.747 2.56-4.773 4.227-7.88 4.28-1.907 0.107-3.813-0.413-5.44-1.373-2.693-1.587-4.587-4.493-4.867-7.613-0.027-0.667-0.040-1.333-0.013-1.987 0.24-2.533 1.493-4.96 3.44-6.613 2.213-1.92 5.307-2.84 8.2-2.293 0.027 1.973-0.053 3.947-0.053 5.92-1.32-0.427-2.867-0.307-4.027 0.493-0.84 0.547-1.48 1.387-1.813 2.333-0.28 0.68-0.2 1.427-0.187 2.147 0.32 2.187 2.427 4.027 4.667 3.827 1.493-0.013 2.92-0.88 3.693-2.147 0.253-0.44 0.533-0.893 0.547-1.413 0.133-2.387 0.080-4.76 0.093-7.147 0.013-5.373-0.013-10.733 0.027-16.093z"></path>
</symbol>
<symbol id="icon-facebook" viewBox="0 0 32 32">
<path fill="#131313" style="fill: var(--color2, #131313)" d="M31.997 15.999c0-8.836-7.163-15.999-15.999-15.999s-15.999 7.163-15.999 15.999c0 7.985 5.851 14.604 13.499 15.804v-11.18h-4.062v-4.625h4.062v-3.525c0-4.010 2.389-6.225 6.043-6.225 1.75 0 3.581 0.313 3.581 0.313v3.937h-2.017c-1.987 0-2.607 1.233-2.607 2.498v3.001h4.437l-0.709 4.625h-3.728v11.18c7.649-1.2 13.499-7.819 13.499-15.804z"></path>
</symbol>
<symbol id="icon-instagram-2" viewBox="0 0 32 32">
<path fill="#131313" style="fill: var(--color3, #131313)" d="M31.969 9.408c-0.075-1.7-0.35-2.869-0.744-3.882-0.406-1.075-1.032-2.038-1.851-2.838-0.8-0.813-1.769-1.444-2.832-1.844-1.019-0.394-2.182-0.669-3.882-0.744-1.713-0.081-2.257-0.1-6.601-0.1s-4.888 0.019-6.595 0.094c-1.7 0.075-2.869 0.35-3.882 0.744-1.075 0.406-2.038 1.031-2.838 1.85-0.813 0.8-1.444 1.769-1.844 2.832-0.394 1.019-0.669 2.182-0.744 3.882-0.081 1.713-0.1 2.257-0.1 6.601s0.019 4.888 0.094 6.595c0.075 1.7 0.35 2.869 0.744 3.882 0.406 1.075 1.038 2.038 1.85 2.838 0.8 0.813 1.769 1.444 2.832 1.844 1.019 0.394 2.182 0.669 3.882 0.744 1.706 0.075 2.25 0.094 6.595 0.094s4.888-0.019 6.595-0.094c1.7-0.075 2.869-0.35 3.882-0.744 2.151-0.832 3.851-2.532 4.682-4.682 0.394-1.019 0.669-2.182 0.744-3.882 0.075-1.707 0.094-2.251 0.094-6.595s-0.006-4.888-0.081-6.595zM29.087 22.473c-0.069 1.563-0.331 2.407-0.55 2.969-0.538 1.394-1.644 2.5-3.038 3.038-0.563 0.219-1.413 0.481-2.969 0.55-1.688 0.075-2.194 0.094-6.464 0.094s-4.782-0.019-6.464-0.094c-1.563-0.069-2.407-0.331-2.969-0.55-0.694-0.256-1.325-0.663-1.838-1.194-0.531-0.519-0.938-1.144-1.194-1.838-0.219-0.563-0.481-1.413-0.55-2.969-0.075-1.688-0.094-2.194-0.094-6.464s0.019-4.782 0.094-6.464c0.069-1.563 0.331-2.407 0.55-2.969 0.256-0.694 0.663-1.325 1.2-1.838 0.519-0.531 1.144-0.938 1.838-1.194 0.563-0.219 1.413-0.481 2.969-0.55 1.688-0.075 2.194-0.094 6.464-0.094 4.276 0 4.782 0.019 6.464 0.094 1.563 0.069 2.407 0.331 2.969 0.55 0.694 0.256 1.325 0.662 1.838 1.194 0.531 0.519 0.938 1.144 1.194 1.838 0.219 0.563 0.481 1.413 0.55 2.969 0.075 1.688 0.094 2.194 0.094 6.464s-0.019 4.77-0.094 6.458z"></path>
<path fill="#131313" style="fill: var(--color3, #131313)" d="M16.059 7.783c-4.538 0-8.22 3.682-8.22 8.22s3.682 8.22 8.22 8.22c4.539 0 8.22-3.682 8.22-8.22s-3.682-8.22-8.22-8.22zM16.059 21.335c-2.944 0-5.332-2.388-5.332-5.332s2.388-5.332 5.332-5.332c2.944 0 5.332 2.388 5.332 5.332s-2.388 5.332-5.332 5.332z"></path>
<path fill="#131313" style="fill: var(--color3, #131313)" d="M26.524 7.458c0 1.060-0.859 1.919-1.919 1.919s-1.919-0.859-1.919-1.919c0-1.060 0.859-1.919 1.919-1.919s1.919 0.859 1.919 1.919z"></path>
</symbol>
<symbol id="icon-twitter" viewBox="0 0 32 32">
<path d="M32 7.075c-1.175 0.525-2.444 0.875-3.769 1.031 1.356-0.813 2.394-2.1 2.887-3.631-1.269 0.75-2.675 1.3-4.169 1.594-1.2-1.275-2.906-2.069-4.794-2.069-3.625 0-6.563 2.938-6.563 6.563 0 0.512 0.056 1.012 0.169 1.494-5.456-0.275-10.294-2.888-13.531-6.862-0.563 0.969-0.887 2.1-0.887 3.3 0 2.275 1.156 4.287 2.919 5.463-1.075-0.031-2.087-0.331-2.975-0.819 0 0.025 0 0.056 0 0.081 0 3.181 2.263 5.838 5.269 6.437-0.55 0.15-1.131 0.231-1.731 0.231-0.425 0-0.831-0.044-1.237-0.119 0.838 2.606 3.263 4.506 6.131 4.563-2.25 1.762-5.075 2.813-8.156 2.813-0.531 0-1.050-0.031-1.569-0.094 2.913 1.869 6.362 2.95 10.069 2.95 12.075 0 18.681-10.006 18.681-18.681 0-0.287-0.006-0.569-0.019-0.85 1.281-0.919 2.394-2.075 3.275-3.394z"></path>
</symbol>
<symbol id="icon-youtube" viewBox="0 0 32 32">
<path d="M31.681 9.6c0 0-0.313-2.206-1.275-3.175-1.219-1.275-2.581-1.281-3.206-1.356-4.475-0.325-11.194-0.325-11.194-0.325h-0.012c0 0-6.719 0-11.194 0.325-0.625 0.075-1.987 0.081-3.206 1.356-0.963 0.969-1.269 3.175-1.269 3.175s-0.319 2.588-0.319 5.181v2.425c0 2.587 0.319 5.181 0.319 5.181s0.313 2.206 1.269 3.175c1.219 1.275 2.819 1.231 3.531 1.369 2.563 0.244 10.881 0.319 10.881 0.319s6.725-0.012 11.2-0.331c0.625-0.075 1.988-0.081 3.206-1.356 0.962-0.969 1.275-3.175 1.275-3.175s0.319-2.587 0.319-5.181v-2.425c-0.006-2.588-0.325-5.181-0.325-5.181zM12.694 20.15v-8.994l8.644 4.513-8.644 4.481z"></path>
</symbol>
<symbol id="icon-twitch" viewBox="0 0 32 32">
<path d="M3 0l-3 5v23h8v4h4l4-4h5l9-9v-19h-27zM26 17l-5 5h-5l-4 4v-4h-6v-18h20v13z"></path>
<path d="M19 8h3v8h-3v-8z"></path>
<path d="M13 8h3v8h-3v-8z"></path>
</symbol>
<symbol id="icon-arrow-up" viewBox="0 0 20 20">
<path d="M9 3.828l-6.071 6.071-1.414-1.414 8.485-8.485 8.485 8.485-1.414 1.414-6.071-6.071v16.172h-2v-16.172z"></path>
</symbol>
<symbol id="icon-1" viewBox="0 0 32 32">
<path d="M16 16c2.947 0 5.333-2.387 5.333-5.333s-2.387-5.333-5.333-5.333c-2.947 0-5.333 2.387-5.333 5.333s2.387 5.333 5.333 5.333zM16 18.667c-3.56 0-10.667 1.787-10.667 5.333v1.333c0 0.733 0.6 1.333 1.333 1.333h18.667c0.733 0 1.333-0.6 1.333-1.333v-1.333c0-3.547-7.107-5.333-10.667-5.333z"></path>
</symbol>
<symbol id="icon-2" viewBox="0 0 32 32">
<path d="M24.882 19.773l-3.268-0.373c-0.785-0.090-1.557 0.18-2.11 0.733l-2.367 2.367c-3.641-1.853-6.626-4.825-8.478-8.478l2.38-2.38c0.553-0.553 0.823-1.325 0.733-2.11l-0.373-3.242c-0.154-1.299-1.248-2.277-2.56-2.277h-2.226c-1.454 0-2.663 1.209-2.573 2.663 0.682 10.987 9.469 19.761 20.443 20.443 1.454 0.090 2.663-1.119 2.663-2.573v-2.226c0.013-1.3-0.965-2.393-2.264-2.547z"></path>
</symbol>
<symbol id="icon-3" viewBox="0 0 32 32">
<path d="M26.667 5.333h-21.333c-1.467 0-2.653 1.2-2.653 2.667l-0.013 16c0 1.467 1.2 2.667 2.667 2.667h21.333c1.467 0 2.667-1.2 2.667-2.667v-16c0-1.467-1.2-2.667-2.667-2.667zM26.133 11l-9.427 5.893c-0.427 0.267-0.987 0.267-1.413 0l-9.427-5.893c-0.333-0.213-0.533-0.573-0.533-0.96 0-0.893 0.973-1.427 1.733-0.96l8.933 5.587 8.933-5.587c0.76-0.467 1.733 0.067 1.733 0.96 0 0.387-0.2 0.747-0.533 0.96z"></path>
</symbol>
<symbol id="icon-close-black-18dp-2-1" viewBox="0 0 32 32">
<path d="M26.667 7.303l-1.97-1.97-7.808 7.808-7.808-7.808-1.97 1.97 7.808 7.808-7.808 7.808 1.97 1.97 7.808-7.808 7.808 7.808 1.97-1.97-7.808-7.808 7.808-7.808z"></path>
<symbol id="icon-2" viewBox="0 0 32 32">
<path d="M24.882 19.773l-3.268-0.373c-0.785-0.090-1.557 0.18-2.11 0.733l-2.367 2.367c-3.641-1.853-6.626-4.825-8.478-8.478l2.38-2.38c0.553-0.553 0.823-1.325 0.733-2.11l-0.373-3.242c-0.154-1.299-1.248-2.277-2.56-2.277h-2.226c-1.454 0-2.663 1.209-2.573 2.663 0.682 10.987 9.469 19.761 20.443 20.443 1.454 0.090 2.663-1.119 2.663-2.573v-2.226c0.013-1.3-0.965-2.393-2.264-2.547z"></path>
</symbol>
</defs>
</svg>
